<svg width="720" height="48" viewBox="0 0 720 48" xmlns="http://www.w3.org/2000/svg">
	<path d="M 33.7655 22.7127 L 21.4042 15.3254 C 19.9045 14.4291 18 15.5096 18 17.2567 V 30.744 C 18 32.4912 19.9045 33.5717 21.4043 32.6754 L 33.7655 25.2878 C 34.7395 24.7057 34.7395 23.2948 33.7655 22.7127 Z M 24 44 C 35.0457 44 44 35.0457 44 24 C 44 12.9543 35.0457 4 24 4 C 12.9543 4 4 12.9543 4 24 C 4 35.0457 12.9543 44 24 44 Z M 24 6.5 C 33.665 6.5 41.5 14.335 41.5 24 C 41.5 33.665 33.665 41.5 24 41.5 C 14.335 41.5 6.5 33.665 6.5 24 C 6.5 14.335 14.335 6.5 24 6.5 Z" fill="#212121" />
	<path d="M 69 16.5 C 69 15.6716 68.3284 15 67.5 15 C 66.6716 15 66 15.6716 66 16.5 V 31.5 C 66 32.3284 66.6716 33 67.5 33 C 68.3284 33 69 32.3284 69 31.5 V 16.5 Z M 78 16.5 C 78 15.6716 77.3284 15 76.5 15 C 75.6716 15 75 15.6716 75 16.5 V 31.5 C 75 32.3284 75.6716 33 76.5 33 C 77.3284 33 78 32.3284 78 31.5 V 16.5 Z M 72 4 C 60.9543 4 52 12.9543 52 24 C 52 35.0456 60.9543 44 72 44 C 83.0456 44 92 35.0456 92 24 C 92 12.9543 83.0456 4 72 4 Z M 54.5 24 C 54.5 14.335 62.335 6.5 72 6.5 C 81.665 6.5 89.5 14.335 89.5 24 C 89.5 33.665 81.665 41.5 72 41.5 C 62.335 41.5 54.5 33.665 54.5 24 Z" fill="#212121" />
	<path d="M 113 15 C 111.8954 15 111 15.8954 111 17 V 31 C 111 32.1046 111.8954 33 113 33 H 127 C 128.1046 33 129 32.1046 129 31 V 17 C 129 15.8954 128.1046 15 127 15 H 113 Z M 140 24 C 140 35.0457 131.0457 44 120 44 C 108.9543 44 100 35.0457 100 24 C 100 12.9543 108.9543 4 120 4 C 131.0457 4 140 12.9543 140 24 Z M 137.5 24 C 137.5 14.335 129.665 6.5 120 6.5 C 110.335 6.5 102.5 14.335 102.5 24 C 102.5 33.665 110.335 41.5 120 41.5 C 129.665 41.5 137.5 33.665 137.5 24 Z" fill="#212121" />
	<path d="M 207 15.75 C 207 15.3358 207.3358 15 207.75 15 C 208.1642 15 208.5 15.3358 208.5 15.75 V 32.25 C 208.5 32.6642 208.1642 33 207.75 33 C 207.3358 33 207 32.6642 207 32.25 V 15.75 Z M 224.9999 16.753 C 224.9999 15.3452 223.4221 14.5136 222.2608 15.3094 L 211.7623 22.5028 C 210.7521 23.1949 210.7469 24.6839 211.7523 25.3831 L 222.2507 32.6847 C 223.4111 33.4917 224.9999 32.6613 224.9999 31.248 V 16.753 Z" fill="#212121" />
	<path d="M 262.0295 16.3616 C 263.0035 15.5326 264.5017 16.2248 264.5017 17.5039 V 21.4933 L 270.5295 16.3632 C 271.5035 15.5343 273.0017 16.2265 273.0017 17.5055 V 30.4984 C 273.0017 31.3769 272.2949 31.9786 271.5367 32.0007 H 271.4503 C 271.1321 31.9914 270.8092 31.8788 270.5295 31.6408 L 264.5017 26.5109 V 30.4968 C 264.5017 31.7758 263.0036 32.468 262.0295 31.6391 L 254.6197 25.3332 C 253.7986 24.6344 253.7986 23.3666 254.6197 22.6678 L 262.0295 16.3616 Z M 254.6197 22.6678 L 255.1058 23.2389 Z" fill="#212121" />
	<path d="M 313.9705 16.3625 C 312.9964 15.5336 311.4983 16.2258 311.4983 17.5048 V 21.4934 L 305.4705 16.3634 C 304.4964 15.5344 302.9983 16.2266 302.9983 17.5057 V 30.4986 C 302.9983 31.3771 303.705 31.9787 304.4633 32.0008 H 304.5496 C 304.8678 31.9915 305.1907 31.8789 305.4704 31.6409 L 311.4983 26.5111 V 30.4977 C 311.4983 31.7768 312.9964 32.469 313.9704 31.6401 L 321.3802 25.3342 C 322.2013 24.6354 322.2013 23.3675 321.3803 22.6688 L 313.9705 16.3625 Z" fill="#212121" />
	<path d="M 351.0001 16.753 C 351.0001 15.3452 352.5779 14.5136 353.7393 15.3094 L 364.2377 22.5028 C 365.2479 23.1949 365.2531 24.6839 364.2478 25.3831 L 353.7493 32.6847 C 352.589 33.4917 351.0001 32.6613 351.0001 31.248 V 16.753 Z M 369 15.75 C 369 15.3358 368.6642 15 368.25 15 C 367.8358 15 367.5 15.3358 367.5 15.75 V 32.25 C 367.5 32.6642 367.8358 33 368.25 33 C 368.6642 33 369 32.6642 369 32.25 V 15.75 Z" fill="#212121" />
	<path d="M 465.5 15.75 C 465.5 15.3358 465.1642 15 464.75 15 C 464.3358 15 464 15.3358 464 15.75 V 19.1495 C 462.8465 17.7615 461.3504 16.5867 459.4717 16.0054 C 457.0931 15.2693 454.5682 15.3307 452.2386 16.1973 C 449.9227 17.0588 447.7345 18.8069 446.5925 20.8896 C 446.3934 21.2528 446.5263 21.7087 446.8895 21.9078 C 447.2527 22.107 447.7086 21.974 447.9078 21.6108 C 448.8521 19.8885 450.7327 18.3579 452.7616 17.6032 C 454.7768 16.8535 456.9619 16.7989 459.0283 17.4383 C 460.7297 17.9648 462.0992 19.1021 463.1573 20.5 H 459.2499 C 458.8357 20.5 458.4999 20.8358 458.4999 21.25 C 458.4999 21.6642 458.8357 22 459.2499 22 H 464.75 C 465.1642 22 465.5 21.6642 465.5 21.25 V 15.75 Z M 452 26 C 451.7239 26 451.5 26.2239 451.5 26.5 V 30.5 C 451.5 30.7761 451.7239 31 452 31 H 460 C 460.2761 31 460.5 30.7761 460.5 30.5 V 26.5 C 460.5 26.2239 460.2761 26 460 26 H 452 Z M 450 26.5 C 450 25.3954 450.8954 24.5 452 24.5 H 460 C 461.1046 24.5 462 25.3954 462 26.5 V 30.5 C 462 31.6046 461.1046 32.5 460 32.5 H 452 C 450.8954 32.5 450 31.6046 450 30.5 V 26.5 Z" fill="#212121" />
	<path d="M 605 16.2495 C 605 15.1709 603.7255 14.5987 602.9195 15.3153 L 598.4279 19.3086 C 598.2907 19.4307 598.1133 19.4981 597.9296 19.4981 H 594.25 C 593.0074 19.4981 592 20.5055 592 21.7481 V 26.246 C 592 27.4886 593.0074 28.496 594.25 28.496 H 597.9296 C 598.1133 28.496 598.2906 28.5634 598.4279 28.6855 L 602.9194 32.6792 C 603.7255 33.396 605 32.8238 605 31.7451 V 16.2495 Z M 599.4246 20.4296 L 603.5 16.8063 V 31.1883 L 599.4246 27.5646 C 599.0127 27.1983 598.4807 26.996 597.9296 26.996 H 594.25 C 593.8358 26.996 593.5 26.6602 593.5 26.246 V 21.7481 C 593.5 21.3339 593.8358 20.9981 594.25 20.9981 H 597.9296 C 598.4807 20.9981 599.0127 20.7958 599.4246 20.4296 Z M 608.9916 17.8968 C 609.3244 17.6503 609.7941 17.7203 610.0407 18.0531 C 611.2717 19.7152 612 21.7734 612 23.9995 C 612 26.2256 611.2717 28.2838 610.0407 29.9459 C 609.7941 30.2788 609.3244 30.3488 608.9916 30.1022 C 608.6587 29.8557 608.5888 29.386 608.8353 29.0531 C 609.8815 27.6406 610.5 25.8934 610.5 23.9995 C 610.5 22.1057 609.8815 20.3585 608.8353 18.9459 C 608.5888 18.6131 608.6587 18.1434 608.9916 17.8968 Z M 607.143 20.3688 C 607.5072 20.1716 607.9624 20.3071 608.1596 20.6714 C 608.6958 21.662 609 22.7963 609 23.9995 C 609 25.2027 608.6958 26.3371 608.1596 27.3277 C 607.9624 27.6919 607.5072 27.8274 607.143 27.6302 C 606.7787 27.433 606.6432 26.9778 606.8404 26.6136 C 607.2609 25.8368 607.5 24.9472 607.5 23.9995 C 607.5 23.0518 607.2609 22.1622 606.8404 21.3854 C 606.6432 21.0212 606.7787 20.566 607.143 20.3688 Z" fill="#212121" />
	<path d="M 650.9195 15.3153 C 651.7255 14.5987 653 15.1709 653 16.2495 V 31.7451 C 653 32.8238 651.7255 33.396 650.9194 32.6792 L 646.4279 28.6855 C 646.2906 28.5634 646.1133 28.496 645.9296 28.496 H 642.25 C 641.0074 28.496 640 27.4886 640 26.246 V 21.7481 C 640 20.5055 641.0074 19.4981 642.25 19.4981 H 645.9296 C 646.1133 19.4981 646.2907 19.4307 646.4279 19.3086 L 650.9195 15.3153 Z M 651.5 16.8063 L 647.4246 20.4296 C 647.0127 20.7958 646.4807 20.9981 645.9296 20.9981 H 642.25 C 641.8358 20.9981 641.5 21.3339 641.5 21.7481 V 26.246 C 641.5 26.6602 641.8358 26.996 642.25 26.996 H 645.9296 C 646.4807 26.996 647.0127 27.1983 647.4247 27.5646 L 651.5 31.1883 V 16.8063 Z M 654.2197 21.2192 C 654.5126 20.9263 654.9874 20.9263 655.2803 21.2192 L 657 22.9389 L 658.7197 21.2192 C 659.0126 20.9263 659.4874 20.9263 659.7803 21.2192 C 660.0732 21.5121 660.0732 21.987 659.7803 22.2799 L 658.0607 23.9995 L 659.7803 25.7192 C 660.0732 26.0121 660.0732 26.487 659.7803 26.7799 C 659.4874 27.0728 659.0126 27.0728 658.7197 26.7799 L 657 25.0602 L 655.2803 26.7799 C 654.9874 27.0728 654.5126 27.0728 654.2197 26.7799 C 653.9268 26.487 653.9268 26.0121 654.2197 25.7192 L 655.9393 23.9995 L 654.2197 22.2799 C 653.9268 21.987 653.9268 21.5121 654.2197 21.2192 Z" fill="#212121" />
	<path d="M 689.2803 14.2197 C 688.9874 13.9268 688.5126 13.9268 688.2197 14.2197 C 687.9268 14.5126 687.9268 14.9874 688.2197 15.2803 L 692.4378 19.4986 H 690.25 C 689.0074 19.4986 688 20.5059 688 21.7486 V 26.2465 C 688 27.4891 689.0074 28.4965 690.25 28.4965 H 693.9296 C 694.1133 28.4965 694.2906 28.5639 694.4279 28.686 L 698.9194 32.6797 C 699.7255 33.3965 701 32.8242 701 31.7456 V 28.0609 L 706.7194 33.7805 C 707.0123 34.0734 707.4872 34.0734 707.7801 33.7805 C 708.073 33.4876 708.073 33.0127 707.7801 32.7198 L 689.2803 14.2197 Z M 699.5 26.5609 V 31.1888 L 695.4247 27.565 C 695.0127 27.1988 694.4807 26.9965 693.9296 26.9965 H 690.25 C 689.8358 26.9965 689.5 26.6607 689.5 26.2465 V 21.7486 C 689.5 21.3344 689.8358 20.9986 690.25 20.9986 H 693.9296 C 693.9323 20.9986 693.9351 20.9986 693.9378 20.9986 L 699.5 26.5609 Z M 699.5 16.8068 V 22.3182 L 701 23.8182 V 16.25 C 701 15.1714 699.7255 14.5991 698.9195 15.3158 L 695.52 18.3381 L 696.5825 19.4006 L 699.5 16.8068 Z M 703.141 25.9592 L 704.279 27.0973 C 704.7408 26.1628 705 25.1107 705 24 C 705 22.7968 704.6958 21.6624 704.1596 20.6718 C 703.9624 20.3075 703.5072 20.1721 703.143 20.3693 C 702.7787 20.5665 702.6432 21.0217 702.8404 21.3859 C 703.2609 22.1627 703.5 23.0523 703.5 24 C 703.5 24.691 703.3729 25.3512 703.141 25.9592 Z M 705.3881 28.2064 L 706.4815 29.2998 C 707.4437 27.7631 708 25.9457 708 24 C 708 21.7739 707.2717 19.7157 706.0407 18.0536 C 705.7941 17.7207 705.3244 17.6508 704.9916 17.8973 C 704.6587 18.1438 704.5888 18.6135 704.8353 18.9464 C 705.8815 20.3589 706.5 22.1062 706.5 24 C 706.5 25.5311 706.0958 26.9663 705.3881 28.2064 Z" fill="#212121" />
</svg>
